<?xml version="1.0" encoding="UTF-8" standalone="no"?>
<!DOCTYPE svg PUBLIC "-//W3C//DTD SVG 1.1//EN" "http://www.w3.org/Graphics/SVG/1.1/DTD/svg11.dtd">
<svg xmlns="http://www.w3.org/2000/svg" version="1.1" viewBox="0.00 0.00 41.00 41.00">
<path stroke="#f5f5f5" stroke-width="2.00" fill="none" stroke-linecap="butt" vector-effect="non-scaling-stroke" d="
  M 25.06 14.81
  A 0.42 0.42 0.0 0 1 24.65 14.51
  L 20.68 1.61
  A 0.42 0.42 0.0 0 0 19.88 1.61
  L 15.91 14.51
  A 0.42 0.42 0.0 0 1 15.50 14.81
  L 2.00 14.60
  A 0.42 0.42 0.0 0 0 1.76 15.36
  L 12.79 23.13
  A 0.42 0.42 0.0 0 1 12.95 23.61
  L 8.58 36.38
  A 0.42 0.42 0.0 0 0 9.23 36.85
  L 20.03 28.75
  A 0.42 0.42 0.0 0 1 20.53 28.75
  L 31.33 36.85
  A 0.42 0.42 0.0 0 0 31.98 36.38
  L 27.61 23.61
  A 0.42 0.42 0.0 0 1 27.77 23.13
  L 38.80 15.36
  A 0.42 0.42 0.0 0 0 38.56 14.60
  L 25.06 14.81"
/>
<path fill="#ffffff" d="
  M 0.00 0.00
  L 41.00 0.00
  L 41.00 41.00
  L 0.00 41.00
  L 0.00 0.00
  Z
  M 25.06 14.81
  A 0.42 0.42 0.0 0 1 24.65 14.51
  L 20.68 1.61
  A 0.42 0.42 0.0 0 0 19.88 1.61
  L 15.91 14.51
  A 0.42 0.42 0.0 0 1 15.50 14.81
  L 2.00 14.60
  A 0.42 0.42 0.0 0 0 1.76 15.36
  L 12.79 23.13
  A 0.42 0.42 0.0 0 1 12.95 23.61
  L 8.58 36.38
  A 0.42 0.42 0.0 0 0 9.23 36.85
  L 20.03 28.75
  A 0.42 0.42 0.0 0 1 20.53 28.75
  L 31.33 36.85
  A 0.42 0.42 0.0 0 0 31.98 36.38
  L 27.61 23.61
  A 0.42 0.42 0.0 0 1 27.77 23.13
  L 38.80 15.36
  A 0.42 0.42 0.0 0 0 38.56 14.60
  L 25.06 14.81
  Z"
/>
<path fill="#ebebeb" d="
  M 25.06 14.81
  L 38.56 14.60
  A 0.42 0.42 0.0 0 1 38.80 15.36
  L 27.77 23.13
  A 0.42 0.42 0.0 0 0 27.61 23.61
  L 31.98 36.38
  A 0.42 0.42 0.0 0 1 31.33 36.85
  L 20.53 28.75
  A 0.42 0.42 0.0 0 0 20.03 28.75
  L 9.23 36.85
  A 0.42 0.42 0.0 0 1 8.58 36.38
  L 12.95 23.61
  A 0.42 0.42 0.0 0 0 12.79 23.13
  L 1.76 15.36
  A 0.42 0.42 0.0 0 1 2.00 14.60
  L 15.50 14.81
  A 0.42 0.42 0.0 0 0 15.91 14.51
  L 19.88 1.61
  A 0.42 0.42 0.0 0 1 20.68 1.61
  L 24.65 14.51
  A 0.42 0.42 0.0 0 0 25.06 14.81
  Z"
/>
</svg>
