<?xml version="1.0" encoding="UTF-8" standalone="no"?>
<!DOCTYPE svg PUBLIC "-//W3C//DTD SVG 1.1//EN" "http://www.w3.org/Graphics/SVG/1.1/DTD/svg11.dtd">
<svg xmlns="http://www.w3.org/2000/svg" version="1.1" viewBox="0.00 0.00 41.00 41.00">
<path stroke="#808080" stroke-width="2.00" fill="none" stroke-linecap="butt" vector-effect="non-scaling-stroke" d="
  M 25.13 15.82
  A 0.48 0.48 0.0 0 1 24.67 15.48
  L 20.77 2.76
  A 0.48 0.48 0.0 0 0 19.85 2.76
  L 15.95 15.48
  A 0.48 0.48 0.0 0 1 15.49 15.82
  L 2.18 15.60
  A 0.48 0.48 0.0 0 0 1.90 16.47
  L 12.80 24.11
  A 0.48 0.48 0.0 0 1 12.97 24.66
  L 8.65 37.24
  A 0.48 0.48 0.0 0 0 9.39 37.78
  L 20.02 29.78
  A 0.48 0.48 0.0 0 1 20.60 29.78
  L 31.23 37.78
  A 0.48 0.48 0.0 0 0 31.97 37.24
  L 27.65 24.66
  A 0.48 0.48 0.0 0 1 27.82 24.11
  L 38.72 16.47
  A 0.48 0.48 0.0 0 0 38.44 15.60
  L 25.13 15.82"
/>
<path fill="#ffffff" d="
  M 0.00 0.00
  L 41.00 0.00
  L 41.00 41.00
  L 0.00 41.00
  L 0.00 0.00
  Z
  M 25.13 15.82
  A 0.48 0.48 0.0 0 1 24.67 15.48
  L 20.77 2.76
  A 0.48 0.48 0.0 0 0 19.85 2.76
  L 15.95 15.48
  A 0.48 0.48 0.0 0 1 15.49 15.82
  L 2.18 15.60
  A 0.48 0.48 0.0 0 0 1.90 16.47
  L 12.80 24.11
  A 0.48 0.48 0.0 0 1 12.97 24.66
  L 8.65 37.24
  A 0.48 0.48 0.0 0 0 9.39 37.78
  L 20.02 29.78
  A 0.48 0.48 0.0 0 1 20.60 29.78
  L 31.23 37.78
  A 0.48 0.48 0.0 0 0 31.97 37.24
  L 27.65 24.66
  A 0.48 0.48 0.0 0 1 27.82 24.11
  L 38.72 16.47
  A 0.48 0.48 0.0 0 0 38.44 15.60
  L 25.13 15.82
  Z"
/>
<path fill="#000000" d="
  M 25.13 15.82
  L 38.44 15.60
  A 0.48 0.48 0.0 0 1 38.72 16.47
  L 27.82 24.11
  A 0.48 0.48 0.0 0 0 27.65 24.66
  L 31.97 37.24
  A 0.48 0.48 0.0 0 1 31.23 37.78
  L 20.60 29.78
  A 0.48 0.48 0.0 0 0 20.02 29.78
  L 9.39 37.78
  A 0.48 0.48 0.0 0 1 8.65 37.24
  L 12.97 24.66
  A 0.48 0.48 0.0 0 0 12.80 24.11
  L 1.90 16.47
  A 0.48 0.48 0.0 0 1 2.18 15.60
  L 15.49 15.82
  A 0.48 0.48 0.0 0 0 15.95 15.48
  L 19.85 2.76
  A 0.48 0.48 0.0 0 1 20.77 2.76
  L 24.67 15.48
  A 0.48 0.48 0.0 0 0 25.13 15.82
  Z"
/>
</svg>
